<?xml version="1.0" encoding="UTF-8"?>
<svg id="Layer_1" xmlns="http://www.w3.org/2000/svg" xmlns:svg="http://www.w3.org/2000/svg" xmlns:sodipodi="http://sodipodi.sourceforge.net/DTD/sodipodi-0.dtd" xmlns:rdf="http://www.w3.org/1999/02/22-rdf-syntax-ns#" xmlns:inkscape="http://www.inkscape.org/namespaces/inkscape" xmlns:dc="http://purl.org/dc/elements/1.1/" xmlns:cc="http://creativecommons.org/ns#" version="1.1" viewBox="0 0 100 125">
  <!-- Generator: Adobe Illustrator 30.3.0, SVG Export Plug-In . SVG Version: 2.1.3 Build 182)  -->
  <path d="M50,2c-11.8,0-22.7,7.8-25.9,19.8-.7,2.7-.9,5.4-.9,7.9,0,9,4.9,16.8,10.3,24.3,5.4,7.5,11.4,14.8,14.7,22.8.4,1,1.6,1.5,2.6,1.1.5-.2.9-.6,1.1-1.1,3.2-8,9.3-15.3,14.7-22.8,5.4-7.5,10.2-15.3,10.3-24.3,0-2.5-.2-5.2-.9-7.9-3.2-11.9-14-19.8-25.8-19.8,0,0,0,0,0,0ZM50,6s0,0,0,0c10,0,19.2,6.6,22,16.8.6,2.2.8,4.5.8,6.8,0,7.6-4.2,14.6-9.5,22-4.5,6.2-9.6,12.7-13.3,19.9-3.6-7.2-8.8-13.6-13.2-19.9-5.3-7.3-9.5-14.4-9.5-22,0-2.3.2-4.6.8-6.8,2.7-10.2,12-16.9,22-16.8ZM49.9,16.2c-6.8,0-12.3,5.6-12.2,12.4,0,6.8,5.5,12.3,12.3,12.3,6.8,0,12.4-5.5,12.4-12.3,0-6.8-5.6-12.5-12.4-12.5ZM49.9,20.2c4.6,0,8.4,3.8,8.4,8.5,0,4.7-3.8,8.3-8.4,8.3-4.6,0-8.3-3.7-8.3-8.4,0-4.7,3.7-8.4,8.3-8.4Z"/>
</svg>